<svg width="31" height="31" viewBox="0 0 31 31" fill="none" xmlns="http://www.w3.org/2000/svg">
<path d="M17.1389 4.73888C17.5264 4.35144 18.052 4.13379 18.6 4.13379C19.148 4.13379 19.6736 4.35144 20.0611 4.73888L29.3611 14.0389C29.7486 14.4264 29.9662 14.952 29.9662 15.5C29.9662 16.048 29.7486 16.5736 29.3611 16.9611L20.0611 26.2611C19.6714 26.6376 19.1493 26.8459 18.6074 26.8412C18.0656 26.8365 17.5472 26.6191 17.164 26.236C16.7809 25.8528 16.5635 25.3344 16.5588 24.7926C16.5541 24.2507 16.7624 23.7287 17.1389 23.3389L22.7333 17.5667H3.10001C2.55189 17.5667 2.02623 17.3489 1.63865 16.9614C1.25108 16.5738 1.03334 16.0481 1.03334 15.5C1.03334 14.9519 1.25108 14.4262 1.63865 14.0387C2.02623 13.6511 2.55189 13.4333 3.10001 13.4333H22.7333L17.1389 7.66115C16.7514 7.27359 16.5338 6.74802 16.5338 6.20001C16.5338 5.65201 16.7514 5.12644 17.1389 4.73888Z" fill="#ADADAD"/>
</svg>
