<svg width="27" height="27" viewBox="0 0 27 27" fill="none" xmlns="http://www.w3.org/2000/svg">
<path d="M13.5 4.5C14.6935 4.5 15.8381 4.97411 16.682 5.81802C17.5259 6.66193 18 7.80653 18 9C18 10.1935 17.5259 11.3381 16.682 12.182C15.8381 13.0259 14.6935 13.5 13.5 13.5C12.3065 13.5 11.1619 13.0259 10.318 12.182C9.47411 11.3381 9 10.1935 9 9C9 7.80653 9.47411 6.66193 10.318 5.81802C11.1619 4.97411 12.3065 4.5 13.5 4.5ZM13.5 15.75C18.4725 15.75 22.5 17.7638 22.5 20.25V22.5H4.5V20.25C4.5 17.7638 8.5275 15.75 13.5 15.75Z" fill="black"/>
</svg>
