<svg width="23" height="32" viewBox="0 0 23 32" fill="none" xmlns="http://www.w3.org/2000/svg">
<path d="M11.5 0C12.8071 0 14.0607 0.532329 14.985 1.47988C15.9093 2.42743 16.4286 3.71259 16.4286 5.05263V15.1579C16.4286 16.4979 15.9093 17.7831 14.985 18.7306C14.0607 19.6782 12.8071 20.2105 11.5 20.2105C10.1929 20.2105 8.93926 19.6782 8.01497 18.7306C7.09069 17.7831 6.57143 16.4979 6.57143 15.1579V5.05263C6.57143 3.71259 7.09069 2.42743 8.01497 1.47988C8.93926 0.532329 10.1929 0 11.5 0ZM23 15.1579C23 21.1032 18.7121 26.0042 13.1429 26.8295V32H9.85714V26.8295C4.28786 26.0042 0 21.1032 0 15.1579H3.28571C3.28571 17.3913 4.15115 19.5332 5.69162 21.1125C7.2321 22.6917 9.32144 23.5789 11.5 23.5789C13.6786 23.5789 15.7679 22.6917 17.3084 21.1125C18.8489 19.5332 19.7143 17.3913 19.7143 15.1579H23Z" fill="black"/>
</svg>
